<svg width="16" height="15" viewBox="0 0 16 15" fill="none" xmlns="http://www.w3.org/2000/svg">
<path d="M7.3512 1.1966C7.38042 1.13757 7.42555 1.08788 7.4815 1.05315C7.53746 1.01841 7.60201 1 7.66787 1C7.73373 1 7.79828 1.01841 7.85423 1.05315C7.91019 1.08788 7.95532 1.13757 7.98453 1.1966L9.52453 4.31593C9.62599 4.52124 9.77574 4.69887 9.96095 4.83357C10.1462 4.96826 10.3613 5.05601 10.5879 5.08926L14.0319 5.59326C14.0971 5.60272 14.1584 5.63024 14.2089 5.67273C14.2593 5.71521 14.2968 5.77096 14.3172 5.83367C14.3376 5.89637 14.34 5.96353 14.3243 6.02755C14.3085 6.09157 14.2751 6.1499 14.2279 6.19593L11.7372 8.62126C11.5729 8.78133 11.45 8.97892 11.3791 9.19702C11.3081 9.41511 11.2912 9.64719 11.3299 9.87326L11.9179 13.2999C11.9294 13.3652 11.9223 13.4323 11.8975 13.4937C11.8727 13.5551 11.8312 13.6083 11.7776 13.6473C11.724 13.6862 11.6605 13.7093 11.5944 13.7139C11.5284 13.7185 11.4623 13.7044 11.4039 13.6733L8.3252 12.0546C8.12234 11.9481 7.89665 11.8924 7.66753 11.8924C7.43841 11.8924 7.21272 11.9481 7.00987 12.0546L3.93187 13.6733C3.87342 13.7042 3.80746 13.7181 3.7415 13.7134C3.67554 13.7087 3.61221 13.6856 3.55873 13.6467C3.50525 13.6078 3.46376 13.5547 3.43897 13.4934C3.41419 13.4321 3.40711 13.3651 3.41853 13.2999L4.00587 9.87393C4.04466 9.64775 4.02786 9.41553 3.95689 9.1973C3.88593 8.97906 3.76294 8.78137 3.59853 8.62126L1.10787 6.1966C1.06026 6.15062 1.02653 6.09219 1.01051 6.02798C0.994488 5.96376 0.996824 5.89634 1.01725 5.83339C1.03768 5.77044 1.07538 5.71449 1.12605 5.67192C1.17672 5.62935 1.23834 5.60186 1.30387 5.5926L4.7472 5.08926C4.97404 5.05626 5.18946 4.96863 5.37492 4.83392C5.56039 4.69921 5.71034 4.52144 5.81187 4.31593L7.3512 1.1966Z" fill="#F6F6F6" stroke="#F6F6F6" stroke-width="2" stroke-linecap="round" stroke-linejoin="round"/>
<path d="M7.85546 0.0126953C7.90432 0.0195329 7.95227 0.0308405 7.99999 0.0429688V13.0127L7.86034 12.9395V12.9404C7.80101 12.9093 7.73497 12.8926 7.66796 12.8926C7.6008 12.8926 7.53406 12.9092 7.4746 12.9404L7.47362 12.9395L4.39745 14.5586L4.39648 14.5576C4.17339 14.6751 3.9224 14.7288 3.67089 14.7109C3.41824 14.693 3.17554 14.6041 2.97069 14.4551C2.7659 14.3061 2.60662 14.103 2.51171 13.8682C2.41729 13.6345 2.38978 13.3791 2.43261 13.1309L3.0205 9.70508C3.03186 9.63887 3.02658 9.57073 3.00585 9.50684C2.98505 9.44287 2.94857 9.38482 2.90038 9.33789V9.33691L0.410148 6.91309L0.411124 6.91211C0.23043 6.73653 0.101102 6.51499 0.0400307 6.27051C-0.021331 6.02455 -0.0118446 5.76553 0.0663979 5.52441C0.14464 5.28355 0.288537 5.0692 0.482414 4.90625L0.635734 4.79492C0.742349 4.72825 0.857681 4.67642 0.978507 4.6416L1.16405 4.60254L4.60253 4.09961H4.60351C4.66989 4.0899 4.73282 4.06384 4.7871 4.02441C4.84136 3.98497 4.88529 3.93318 4.91503 3.87305L6.45409 0.753906L6.45507 0.75293C6.56697 0.526891 6.73981 0.336158 6.95409 0.203125L7.12011 0.115234C7.29194 0.0392172 7.4787 0 7.66796 0L7.85546 0.0126953ZM3.46386 12.7891L3.46679 12.7881L3.46972 12.7861C3.46778 12.7871 3.46579 12.788 3.46386 12.7891Z" fill="#F3BB44"/>
</svg>
